*******************************************************************************
                  After the Dawn (2012) HDRip - RadioResearch
*******************************************************************************

-------------------------------------------------------------------------------
                              General Information
-------------------------------------------------------------------------------
Type.................: Movie



Video Format.........: AVI
Video Bitrate........: 1841
Resolution...........: 640 x 360
Color................: 8 bit
FPS..................: 25.000
Source...............: HD WEB 16:9
Original Format......: NTSC
Genre................: Action / Drama / Horror
IMDb Rating..........: 3.9
Movie Information....: http://www.imdb.com/title/tt1839454/

-------------------------------------------------------------------------------
                               Post Information
-------------------------------------------------------------------------------
Posted by............: RadioResearch
Posted on............: 5/22/2013

-------------------------------------------------------------------------------
                                 Release Notes
-------------------------------------------------------------------------------
SEEDBOX SUPPORTED!!

A survivor of warfare born chemical attack, Cassie Becker faces a new world of 
terrible realization. The Human race has suffered terrible recourse in the wake 
of an attack that never should have been leaving the remaining inhabitants in a 
state far less then human. It has been six months since to the day in this new 
world of indescribable destruction and isolated fear. In search of the only 
person she holds dear Cassie must fight the onslaught of creatures once precious 
to her in an unstoppable journey to reunite. 

Enjoy!

RadioResearch

General
Complete name                            : G:After the Dawn (2012) HDRip - 
RadioResearchAfter the Dawn (HD){RadioResearch}.avi
Format                                   : AVI
Format/Info                              : Audio Video Interleave
File size                                : 1.14 GiB
Duration                                 : 1h 28mn
Overall bit rate                         : 1 841 Kbps

Video
ID                                       : 0
Format                                   : mp43
Codec ID                                 : mp43
Duration                                 : 1h 28mn
Bit rate                                 : 1 701 Kbps
Width                                    : 640 pixels
Height                                   : 360 pixels
Display aspect ratio                     : 16:9
Frame rate                               : 25.000 fps
Bits/(Pixel*Frame)                       : 0.295
Stream size                              : 1.05 GiB (92%)

Audio
ID                                       : 1
Format                                   : MPEG Audio
Format version                           : Version 1
Format profile                           : Layer 3
Mode                                     : Joint stereo
Mode extension                           : MS Stereo
Codec ID                                 : 55
Codec ID/Hint                            : MP3
Duration                                 : 1h 28mn
Bit rate mode                            : Constant
Bit rate                                 : 128 Kbps
Channel(s)                               : 2 channels
Sampling rate                            : 44.1 KHz
Compression mode                         : Lossy
Stream size                              : 81.1 MiB (7%)
Alignment                                : Aligned on interleaves
Interleave, duration                     : 26 ms (0.65 video frame)
Interleave, preload duration             : 496 ms
Writing library                          : LAME3.98.2

AVI FILE MD5 HASH  cca4f67db723f114d4aac965767a6887
^^^^^^^^^^^^^^^^^^^^^^^^^^^^^^^^^^^^^^^^^^^^^^^^^^^
YOU *KNOW* WHY!



-------------------------------------------------------------------------------
Generated with Cool NFO Creator - http://fly.to/coolbeans
-------------------------------------------------------------------------------
